<svg width="13" height="14" viewBox="0 0 13 14" fill="none" xmlns="http://www.w3.org/2000/svg">
<g clip-path="url(#clip0_2017_58)">
<path d="M2.16668 8.16666C2.06418 8.16704 1.96368 8.13609 1.87687 8.0774C1.79005 8.01872 1.72048 7.93471 1.67623 7.83513C1.63199 7.73556 1.61488 7.62451 1.62691 7.51488C1.63894 7.40526 1.67961 7.30156 1.74418 7.21583L7.10668 1.26583C7.14691 1.21583 7.20172 1.18204 7.26213 1.17001C7.32254 1.15798 7.38495 1.16842 7.43912 1.19963C7.49329 1.23083 7.536 1.28094 7.56024 1.34173C7.58448 1.40252 7.58881 1.47038 7.57252 1.53417L6.53252 5.04583C6.50185 5.13422 6.49155 5.2293 6.5025 5.32292C6.51346 5.41654 6.54533 5.5059 6.5954 5.58333C6.64547 5.66077 6.71223 5.72397 6.78996 5.76751C6.86769 5.81105 6.95407 5.83364 7.04168 5.83333H10.8333C10.9359 5.83296 11.0363 5.86391 11.1232 5.92259C11.21 5.98128 11.2796 6.06529 11.3238 6.16487C11.368 6.26444 11.3851 6.37549 11.3731 6.48511C11.3611 6.59474 11.3204 6.69844 11.2559 6.78417L5.89335 12.7342C5.85312 12.7842 5.79831 12.818 5.7379 12.83C5.67749 12.842 5.61508 12.8316 5.56091 12.8004C5.50674 12.7692 5.46403 12.7191 5.43979 12.6583C5.41555 12.5975 5.41122 12.5296 5.42752 12.4658L6.46752 8.95417C6.49818 8.86578 6.50848 8.77069 6.49753 8.67708C6.48658 8.58346 6.4547 8.4941 6.40463 8.41667C6.35457 8.33923 6.28781 8.27603 6.21008 8.23249C6.13235 8.18894 6.04597 8.16636 5.95835 8.16666H2.16668Z" stroke="black" stroke-width="2" stroke-linecap="round" stroke-linejoin="round"/>
</g>
<defs>
<clipPath id="clip0_2017_58">
<rect width="13" height="14" fill="white"/>
</clipPath>
</defs>
</svg>
